<svg xmlns="http://www.w3.org/2000/svg" xmlns:ev="http://www.w3.org/2001/xml-events" xmlns:xlink="http://www.w3.org/1999/xlink" width="200mm" height="200mm" baseProfile="full" version="1.1" viewBox="0 0 200 200"><rect width="200" height="200" x="0" y="0" fill="#1a1a1a"/><text style="dominant-baseline:central;font-size:9px;font-family:Arial" x="100" y="100" fill="#e1ed5e" alignment-baseline="middle" text-anchor="middle">2021</text><line x1="100" x2="100" y1="15" y2="10" stroke="#e1ed5e" stroke-width=".3"/><path id="id109" fill="none" stroke="none" d="M 100.0 14.0 a86.0,86.0 0 0,1 42.46469731375804,11.215312516191453"/><text fill="#e1ed5e" text-anchor="middle" style="font-size:6.75px;font-family:Arial"><textPath startOffset="22.206" xlink:href="#id109">January</textPath></text><path fill="#d9ff1c" stroke="none" d="M 100.0 79.0 l 0.0 -28.212542237303566 a49.212542237303566,49.212542237303566 0 0,0 0.8471130168647638,0.007291369179279127 l -0.4856325375922354 28.208362244732847"/><path fill="#b9ff1f" stroke="none" d="M 100.36148047927253 79.00311137660856 l 0.5268052472109093 -30.599912681775304 a51.6044470608564,51.6044470608564 0 0,0 0.8880225082519044,0.022935001466550992 l -1.0534543906576814 30.586310888166395"/><path fill="#45ffee" stroke="none" d="M 100.72285384407766 79.0124445844662 l 1.971377175500322 -57.237556464161806 a78.27149551003706,78.27149551003706 0 0,0 1.3461175317165313,0.05796665254915989 l -2.956335539606185 57.195142085088456"/><path fill="#ff5708" stroke="none" d="M 101.08401301168833 79.027996857942 l 0.7287898373937847 -14.099630350301396 a35.11845284166182,35.11845284166182 0 0,0 0.6034319319670457,0.03640066203737845 l -0.9713838182004423 14.084996418883714"/><path fill="#ffdf14" stroke="none" d="M 101.44485096284872 79.0497635885617 l 1.5932170086641204 -23.101533545320223 a44.15640716048697,44.15640716048697 0 0,0 0.7578286830071653,0.05882209109590623 l -1.9906358810336269 23.070686192035854"/><path fill="#ff880c" stroke="none" d="M 101.80526077348638 79.07773832637324 l 1.4808211071489592 -17.16213366546849 a38.22590093733227,38.22590093733227 0 0,0 0.6550733924611126,0.06220711190238424 l -1.7760196267003159 17.134101009050926"/><path fill="#ff870c" stroke="none" d="M 102.16513564639614 79.11191278185805 l 1.770013526405949 -17.07615731993451 a38.167646801434756,38.167646801434756 0 0,0 0.6529090276074238,0.07336193673384696 l -2.0636892575230976 17.043159429730064"/><path fill="#ff3104" stroke="none" d="M 102.52436894288641 79.15227682838746 l 1.412951036475371 -11.668980537290293 a32.75421360241239,32.75421360241239 0 0,0 0.5591382455129907,0.07259219164268169 l -1.6136040104962077 11.642930022483476"/><path fill="#ff0600" stroke="none" d="M 102.88285421437855 79.19881850522331 l 1.2473814856679497 -9.000458138739575 a30.08648486918845,30.08648486918845 0 0,0 0.5123742980516993,0.07551065261017999 l -1.4021247641483048 8.977653001968426"/><path fill="#4dd2ff" stroke="none" d="M 103.2404852339499 79.25152402106235 l 9.721455701849713 -62.245427936812945 a84.0,84.0 0 0,0 1.4266831754444993,0.23541494824150133 l -10.791468083433088 62.06886672563182"/><path fill="red" stroke="none" d="M 103.59715602781102 79.31037775812273 l 1.4984079654235902 -8.618334742543615 a29.747623686772265,29.747623686772265 0 0,0 0.5037333389814823,0.09205404791639354 l -1.6465364255079733 8.591265213276483"/><path fill="#ffd914" stroke="none" d="M 103.95276090670814 79.375362276772 l 4.284863557475715 -22.357476369598217 a43.76437579472203,43.76437579472203 0 0,0 0.7386459452549218,0.14816542779786276 l -4.669075912197762 22.280406985723147"/><line x1="143.237" x2="145.78" y1="26.818" y2="22.514" stroke="#e1ed5e" stroke-width=".3"/><path id="id110" fill="none" stroke="none" d="M 143.74570117128098 25.957352633546492 a86.0,86.0 0 0,1 28.547481713284135,27.462654790039103"/><text fill="#e1ed5e" text-anchor="middle" style="font-size:6.75px;font-family:Arial"><textPath startOffset="19.986" xlink:href="#id110">February</textPath></text><line x1="172.234" x2="176.484" y1="55.198" y2="52.563" stroke="#e1ed5e" stroke-width=".3"/><path id="id111" fill="none" stroke="none" d="M 173.08426987136738 54.67131705675599 a86.0,86.0 0 0,1 12.851231095245387,41.99856678651699"/><text fill="#e1ed5e" text-anchor="middle" style="font-size:6.75px;font-family:Arial"><textPath startOffset="22.206" xlink:href="#id111">March</textPath></text><line x1="184.98" x2="189.979" y1="98.171" y2="98.064" stroke="#e1ed5e" stroke-width=".3"/><path id="id112" fill="none" stroke="none" d="M 185.9800911702706 98.14961562048488 a86.0,86.0 0 0,1 -9.607161424134198,41.387399972396054"/><text fill="#e1ed5e" text-anchor="middle" style="font-size:6.75px;font-family:Arial"><textPath startOffset="21.466" xlink:href="#id112">April</textPath></text><line x1="174.801" x2="179.201" y1="140.371" y2="142.746" stroke="#e1ed5e" stroke-width=".3"/><path id="id113" fill="none" stroke="none" d="M 175.68104954172406 140.8457921977663 a86.0,86.0 0 0,1 -30.038265399797805,32.042727171017184"/><text fill="#e1ed5e" text-anchor="middle" style="font-size:6.75px;font-family:Arial"><textPath startOffset="22.206" xlink:href="#id113">May</textPath></text><line x1="143.865" x2="146.446" y1="172.807" y2="177.09" stroke="#e1ed5e" stroke-width=".3"/><path id="id114" fill="none" stroke="none" d="M 144.38136562736335 173.6633856474863 a86.0,86.0 0 0,1 -40.68145358897372,12.25698825130547"/><text fill="#e1ed5e" text-anchor="middle" style="font-size:6.75px;font-family:Arial"><textPath startOffset="21.466" xlink:href="#id114">June</textPath></text><line x1="102.195" x2="102.324" y1="184.972" y2="189.97" stroke="#e1ed5e" stroke-width=".3"/><path id="id115" fill="none" stroke="none" d="M 102.22038585953345 185.97133177190398 a86.0,86.0 0 0,1 -42.740103519485714,-10.115201625700543"/><text fill="#e1ed5e" text-anchor="middle" style="font-size:6.75px;font-family:Arial"><textPath startOffset="22.206" xlink:href="#id115">July</textPath></text><line x1="58.667" x2="56.235" y1="174.274" y2="178.643" stroke="#e1ed5e" stroke-width=".3"/><path id="id116" fill="none" stroke="none" d="M 58.180547188652646 175.14741091055294 a86.0,86.0 0 0,1 -31.652253787137756,-30.449443065178592"/><text fill="#e1ed5e" text-anchor="middle" style="font-size:6.75px;font-family:Arial"><textPath startOffset="22.206" xlink:href="#id116">August</textPath></text><line x1="26.633" x2="22.317" y1="142.922" y2="145.446" stroke="#e1ed5e" stroke-width=".3"/><path id="id117" fill="none" stroke="none" d="M 25.769776987707644 143.4266507060508 a86.0,86.0 0 0,1 -11.730757126820373,-40.83630448921669"/><text fill="#e1ed5e" text-anchor="middle" style="font-size:6.75px;font-family:Arial"><textPath startOffset="21.466" xlink:href="#id117">September</textPath></text><line x1="15.007" x2="10.008" y1="101.097" y2="101.162" stroke="#e1ed5e" stroke-width=".3"/><path id="id118" fill="none" stroke="none" d="M 14.007167355692545 101.11028546245083 a86.0,86.0 0 0,1 10.666146001902534,-42.60595125391555"/><text fill="#e1ed5e" text-anchor="middle" style="font-size:6.75px;font-family:Arial"><textPath startOffset="22.206" xlink:href="#id118">October</textPath></text><line x1="26.266" x2="21.929" y1="57.711" y2="55.224" stroke="#e1ed5e" stroke-width=".3"/><path id="id119" fill="none" stroke="none" d="M 25.398753493254645 57.213857153982495 a86.0,86.0 0 0,1 29.58750427330803,-30.492523968695096"/><text fill="#e1ed5e" text-anchor="middle" style="font-size:6.75px;font-family:Arial"><textPath startOffset="21.466" xlink:href="#id119">November</textPath></text><line x1="56.763" x2="54.22" y1="26.818" y2="22.514" stroke="#e1ed5e" stroke-width=".3"/><path id="id120" fill="none" stroke="none" d="M 56.25429882871897 25.957352633546506 a86.0,86.0 0 0,1 42.265352541879196,-11.944610805530505"/><text fill="#e1ed5e" text-anchor="middle" style="font-size:6.75px;font-family:Arial"><textPath startOffset="22.206" xlink:href="#id120">December</textPath></text></svg>